<?xml version="1.0" encoding="iso-8859-1"?>
<!-- Generator: Adobe Illustrator 19.0.0, SVG Export Plug-In . SVG Version: 6.00 Build 0)  -->
<svg version="1.1" id="Layer_1" xmlns="http://www.w3.org/2000/svg" xmlns:xlink="http://www.w3.org/1999/xlink" x="0px" y="0px"
	 viewBox="0 0 512 512" style="enable-background:new 0 0 512 512;" xml:space="preserve">
<path style="fill:#40596B;" d="M143.304,512H76.522c-9.22,0-16.696-7.475-16.696-16.696V16.696C59.826,7.475,67.301,0,76.522,0
	h66.783C152.525,0,160,7.475,160,16.696v478.609C160,504.525,152.525,512,143.304,512z"/>
<path style="fill:#4CDBC4;" d="M402.087,512H126.609V0h275.478c27.662,0,50.087,22.424,50.087,50.087v411.826
	C452.174,489.576,429.749,512,402.087,512z"/>
<path style="fill:#5AC2AD;" d="M402.087,0h-77.913v512h77.913c27.662,0,50.087-22.424,50.087-50.087V50.087
	C452.174,22.424,429.749,0,402.087,0z"/>
<path style="fill:#FF7058;" d="M356.891,201.76l-32.717-32.716l-32.717,32.716c-10.317,10.321-28.501,3.449-28.501-12.21l0-189.55
	h122.435v189.521C385.391,205.302,367.142,212.015,356.891,201.76z"/>
<g>
	<path style="fill:#FFD15C;" d="M339.324,362.271h-99.866c-9.22,0-16.696-7.475-16.696-16.696c0-9.22,7.475-16.696,16.696-16.696
		h99.866c9.22,0,16.696,7.475,16.696,16.696C356.019,354.796,348.545,362.271,339.324,362.271z"/>
	<path style="fill:#FFD15C;" d="M339.324,421.025h-99.866c-9.22,0-16.696-7.475-16.696-16.696c0-9.22,7.475-16.696,16.696-16.696
		h99.866c9.22,0,16.696,7.475,16.696,16.696C356.019,413.55,348.545,421.025,339.324,421.025z"/>
</g>
<path style="fill:#F1543F;" d="M324.174,0v169.043l32.717,32.716c10.252,10.256,28.501,3.542,28.501-12.239V0H324.174z"/>
<g>
	<path style="fill:#F8B64C;" d="M339.324,328.88h-15.15v33.391h15.15c9.22,0,16.696-7.475,16.696-16.696
		C356.019,336.355,348.545,328.88,339.324,328.88z"/>
	<path style="fill:#F8B64C;" d="M339.324,387.634h-15.15v33.391h15.15c9.22,0,16.696-7.475,16.696-16.696
		C356.019,395.109,348.545,387.634,339.324,387.634z"/>
</g>
<g>
</g>
<g>
</g>
<g>
</g>
<g>
</g>
<g>
</g>
<g>
</g>
<g>
</g>
<g>
</g>
<g>
</g>
<g>
</g>
<g>
</g>
<g>
</g>
<g>
</g>
<g>
</g>
<g>
</g>
</svg>
